<svg width="380" height="210" viewBox="0 0 380 210" fill="none" xmlns="http://www.w3.org/2000/svg">
<path d="M69.5509 10.6841C65.017 22.3031 55.1015 42.0437 63.9604 54.26C71.1218 64.1357 84.5228 71.2926 96.6981 70.8739C118.125 70.137 137.588 65.1587 157.458 74.9727C168.999 80.6733 165.48 101.22 165.468 111.613C165.441 135.272 171.927 155.221 195.407 164.383C202.87 167.296 217.123 168.292 217.123 168.292L236.931 169.381C236.931 169.381 250.794 171.951 257.462 177.392C260.732 180.061 262.548 181.784 264.71 185.409C267.61 190.272 268.083 193.738 268.598 199.377C269.445 208.672 263.626 222.754 263.626 222.754C263.626 222.754 261.878 228.566 262.084 231.49C262.34 235.121 264.829 237.907 265.326 241.264C266.276 247.676 277.101 250.424 282.42 252.499C288.379 254.824 316.87 262.331 314.066 269.517C311.554 275.955 312.559 282.345 310.034 289.422C308.268 294.374 309.729 303.113 310.193 308.16" stroke="#7391C8" stroke-width="20" stroke-linecap="round"/>
<circle cx="69.4355" cy="86.4877" r="15" fill="white"/>
<circle cx="69.4355" cy="146.488" r="15" fill="white"/>
<circle cx="69.4355" cy="206.488" r="15" fill="white"/>
<circle cx="129.436" cy="86.4877" r="15" fill="white"/>
<circle cx="129.436" cy="146.488" r="15" fill="white"/>
<circle cx="129.436" cy="206.488" r="15" fill="white"/>
<circle cx="189.436" cy="86.4877" r="15" fill="white"/>
<circle cx="189.436" cy="146.488" r="15" fill="white"/>
<circle cx="189.436" cy="206.488" r="15" fill="white"/>
<circle cx="249.436" cy="86.4877" r="15" fill="white"/>
<circle cx="249.436" cy="146.488" r="15" fill="white"/>
<circle cx="249.436" cy="206.488" r="15" fill="white"/>
<circle cx="309.436" cy="86.4877" r="15" fill="white"/>
<circle cx="309.436" cy="146.488" r="15" fill="white"/>
<circle cx="309.436" cy="206.488" r="15" fill="white"/>
</svg>
