<svg width="183" height="30" viewBox="0 0 183 30" fill="none" xmlns="http://www.w3.org/2000/svg">
<path fill-rule="evenodd" clip-rule="evenodd" d="M4.88154 12.8975H21.22C21.774 12.8975 22.1983 12.8975 22.5661 12.9526C23.5478 13.1025 24.4353 13.5487 25.0691 14.2111H26.7877C28.3056 14.2111 29.7614 14.7301 30.8348 15.654C31.9081 16.5778 32.5111 17.8308 32.5111 19.1374C32.5111 20.4439 31.9081 21.6969 30.8348 22.6207C29.7614 23.5446 28.3056 24.0636 26.7877 24.0636H24.7242C24.0271 25.611 22.8027 26.9408 21.2118 27.8786C19.6208 28.8163 17.7377 29.3182 15.8094 29.3182H10.2936C7.95017 29.3181 5.68841 28.5772 3.9378 27.2363C2.18719 25.8954 1.06962 24.0479 0.797314 22.0445L0.186817 17.5413L0.173081 17.4519C0.108979 16.979 0.0601393 16.6151 0.0815067 16.2959C0.137266 15.4855 0.508528 14.7149 1.13542 14.1084C1.76231 13.5018 2.60829 13.0947 3.53692 12.9526C3.90322 12.8975 4.32904 12.8975 4.88154 12.8975ZM22.9233 22.3834C22.8804 22.558 22.8505 22.6621 22.7969 22.8205C22.7433 22.9789 22.6849 23.133 22.6165 23.2898C22.0963 24.482 21.1659 25.5092 19.9496 26.2343C18.7333 26.9593 17.289 27.3478 15.8094 27.3477H10.2936C8.51139 27.3475 6.79133 26.784 5.45996 25.7643C4.12859 24.7445 3.27862 23.3395 3.07142 21.8159L2.76617 19.5643L2.46092 17.3127C2.37698 16.7084 2.35866 16.535 2.36629 16.4115C2.39198 16.0432 2.56105 15.693 2.84625 15.4175C3.13146 15.142 3.51616 14.9572 3.93832 14.8929C4.07721 14.8719 4.27867 14.868 4.98685 14.868H21.1162C21.8228 14.868 22.0243 14.8719 22.1647 14.8942C23.0347 15.0256 23.6833 15.6548 23.7367 16.4115C23.7444 16.535 23.7245 16.7071 23.6436 17.3127L23.3376 19.5643L23.0316 21.8159C23.0057 22.0064 22.969 22.1969 22.9233 22.3834ZM25.2981 22.0931H26.7877C27.6985 22.0931 28.5719 21.7817 29.2159 21.2274C29.8599 20.6731 30.2217 19.9213 30.2217 19.1374C30.2217 18.3534 29.8599 17.6016 29.2159 17.0473C28.5719 16.493 27.6985 16.1816 26.7877 16.1816H26.0108C26.0154 16.2197 26.0185 16.2565 26.02 16.2946C26.0429 16.6151 25.9941 16.9777 25.9284 17.4506L25.9162 17.5413L25.3057 22.0445L25.2981 22.0931Z" fill="url(#paint0_linear_777_40)"/>
<path d="M9.83283 1.18164C7.92771 1.18168 6.26511 1.7763 6.04597 3.61835C5.80009 5.68518 7.04681 6.17724 8.99534 6.84489C10.9439 7.51255 11.217 8.67861 10.9439 10.1341C10.6744 11.5708 8.766 13.7084 6.04597 12.5808M15.8831 1.18164V6.88121M15.8831 12.5808V6.88121M15.8831 6.88121L19.7639 6.84489V1.18164V12.5808" stroke="url(#paint1_linear_777_40)" stroke-width="2" stroke-linecap="round" stroke-linejoin="round"/>
<path d="M52.5153 24.5104C51.4593 24.5104 50.5313 24.3264 49.7313 23.9584C48.9313 23.5744 48.3073 23.0384 47.8593 22.3504C47.4273 21.6464 47.2113 20.8384 47.2113 19.9264V19.3024C47.2113 19.2224 47.2353 19.1584 47.2833 19.1104C47.3473 19.0464 47.4193 19.0144 47.4993 19.0144H49.6593C49.7393 19.0144 49.8033 19.0464 49.8513 19.1104C49.9153 19.1584 49.9473 19.2224 49.9473 19.3024V19.7824C49.9473 20.4704 50.1873 21.0304 50.6673 21.4624C51.1473 21.8944 51.7953 22.1104 52.6113 22.1104C53.3633 22.1104 53.9393 21.9184 54.3393 21.5344C54.7393 21.1504 54.9393 20.6464 54.9393 20.0224C54.9393 19.5904 54.8273 19.2224 54.6033 18.9184C54.3793 18.5984 54.0593 18.3104 53.6433 18.0544C53.2433 17.7824 52.6193 17.4224 51.7713 16.9744C50.7953 16.4624 50.0113 16.0064 49.4193 15.6064C48.8273 15.2064 48.3233 14.6944 47.9073 14.0704C47.5073 13.4464 47.3073 12.6864 47.3073 11.7904C47.3073 10.4144 47.7633 9.32636 48.6753 8.52636C49.6033 7.72636 50.8193 7.32636 52.3233 7.32636C53.3633 7.32636 54.2833 7.52636 55.0833 7.92636C55.8833 8.31036 56.4993 8.86236 56.9313 9.58236C57.3633 10.3024 57.5793 11.1264 57.5793 12.0544V12.5584C57.5793 12.6384 57.5473 12.7104 57.4833 12.7744C57.4353 12.8224 57.3713 12.8464 57.2913 12.8464H55.1313C55.0513 12.8464 54.9793 12.8224 54.9153 12.7744C54.8673 12.7104 54.8433 12.6384 54.8433 12.5584V12.1024C54.8433 11.4144 54.6113 10.8464 54.1473 10.3984C53.6833 9.95036 53.0593 9.72636 52.2753 9.72636C51.5873 9.72636 51.0433 9.91036 50.6433 10.2784C50.2433 10.6304 50.0433 11.1264 50.0433 11.7664C50.0433 12.1984 50.1473 12.5664 50.3553 12.8704C50.5633 13.1744 50.8753 13.4624 51.2913 13.7344C51.7233 14.0064 52.3713 14.3584 53.2353 14.7904C54.3873 15.4464 55.2353 15.9584 55.7793 16.3264C56.3233 16.6944 56.7793 17.1744 57.1473 17.7664C57.5313 18.3424 57.7233 19.0544 57.7233 19.9024C57.7233 21.3104 57.2513 22.4304 56.3073 23.2624C55.3633 24.0944 54.0993 24.5104 52.5153 24.5104ZM65.108 24.5344C64.052 24.5344 63.116 24.3184 62.3 23.8864C61.5 23.4544 60.876 22.8464 60.428 22.0624C59.996 21.2624 59.78 20.3424 59.78 19.3024V12.5344C59.78 11.5104 59.996 10.6064 60.428 9.82236C60.876 9.02236 61.5 8.40636 62.3 7.97436C63.116 7.54236 64.052 7.32636 65.108 7.32636C66.18 7.32636 67.116 7.54236 67.916 7.97436C68.732 8.40636 69.364 9.02236 69.812 9.82236C70.26 10.6064 70.484 11.5104 70.484 12.5344V19.3024C70.484 20.3424 70.26 21.2624 69.812 22.0624C69.364 22.8464 68.732 23.4544 67.916 23.8864C67.116 24.3184 66.18 24.5344 65.108 24.5344ZM65.108 22.1344C65.892 22.1344 66.516 21.8864 66.98 21.3904C67.46 20.8784 67.7 20.2224 67.7 19.4224V12.4624C67.7 11.6464 67.46 10.9904 66.98 10.4944C66.516 9.98236 65.892 9.72636 65.108 9.72636C64.34 9.72636 63.724 9.98236 63.26 10.4944C62.796 10.9904 62.564 11.6464 62.564 12.4624V19.4224C62.564 20.2224 62.796 20.8784 63.26 21.3904C63.724 21.8864 64.34 22.1344 65.108 22.1344ZM81.4747 7.80636C81.4747 7.72636 81.4987 7.66236 81.5467 7.61436C81.6107 7.55036 81.6827 7.51836 81.7627 7.51836H83.9707C84.0507 7.51836 84.1147 7.55036 84.1627 7.61436C84.2267 7.66236 84.2587 7.72636 84.2587 7.80636V24.0304C84.2587 24.1104 84.2267 24.1824 84.1627 24.2464C84.1147 24.2944 84.0507 24.3184 83.9707 24.3184H81.6427C81.4987 24.3184 81.3867 24.2464 81.3067 24.1024L76.0747 13.3504C76.0427 13.3024 76.0107 13.2864 75.9787 13.3024C75.9467 13.3024 75.9307 13.3344 75.9307 13.3984L75.9547 24.0304C75.9547 24.1104 75.9227 24.1824 75.8587 24.2464C75.8107 24.2944 75.7467 24.3184 75.6667 24.3184H73.4587C73.3787 24.3184 73.3067 24.2944 73.2427 24.2464C73.1947 24.1824 73.1707 24.1104 73.1707 24.0304V7.80636C73.1707 7.72636 73.1947 7.66236 73.2427 7.61436C73.3067 7.55036 73.3787 7.51836 73.4587 7.51836H75.7627C75.9227 7.51836 76.0347 7.59036 76.0987 7.73436L81.3547 18.5344C81.3867 18.5824 81.4187 18.6064 81.4507 18.6064C81.4827 18.5904 81.4987 18.5504 81.4987 18.4864L81.4747 7.80636ZM87.5921 24.3184C87.5121 24.3184 87.4401 24.2944 87.3761 24.2464C87.3281 24.1824 87.3041 24.1104 87.3041 24.0304V7.80636C87.3041 7.72636 87.3281 7.66236 87.3761 7.61436C87.4401 7.55036 87.5121 7.51836 87.5921 7.51836H89.8001C89.8801 7.51836 89.9441 7.55036 89.9921 7.61436C90.0561 7.66236 90.0881 7.72636 90.0881 7.80636V24.0304C90.0881 24.1104 90.0561 24.1824 89.9921 24.2464C89.9441 24.2944 89.8801 24.3184 89.8001 24.3184H87.5921ZM101.756 24.3184C101.58 24.3184 101.468 24.2384 101.42 24.0784L100.796 21.5104C100.78 21.4464 100.74 21.4144 100.676 21.4144H95.732C95.668 21.4144 95.628 21.4464 95.612 21.5104L95.012 24.0784C94.964 24.2384 94.852 24.3184 94.676 24.3184H92.396C92.188 24.3184 92.108 24.2144 92.156 24.0064L96.524 7.75836C96.572 7.59836 96.684 7.51836 96.86 7.51836H99.596C99.772 7.51836 99.884 7.59836 99.932 7.75836L104.3 24.0064L104.324 24.1024C104.324 24.2464 104.236 24.3184 104.06 24.3184H101.756ZM96.188 19.0864C96.172 19.1344 96.18 19.1744 96.212 19.2064C96.244 19.2224 96.276 19.2304 96.308 19.2304H100.1C100.132 19.2304 100.164 19.2224 100.196 19.2064C100.228 19.1744 100.236 19.1344 100.22 19.0864L98.252 11.2144C98.236 11.1664 98.212 11.1424 98.18 11.1424C98.148 11.1424 98.124 11.1664 98.108 11.2144L96.188 19.0864ZM118.771 7.80636C118.771 7.72636 118.795 7.66236 118.843 7.61436C118.907 7.55036 118.979 7.51836 119.059 7.51836H121.267C121.347 7.51836 121.411 7.55036 121.459 7.61436C121.523 7.66236 121.555 7.72636 121.555 7.80636V24.0304C121.555 24.1104 121.523 24.1824 121.459 24.2464C121.411 24.2944 121.347 24.3184 121.267 24.3184H119.059C118.979 24.3184 118.907 24.2944 118.843 24.2464C118.795 24.1824 118.771 24.1104 118.771 24.0304V17.2144C118.771 17.1344 118.731 17.0944 118.651 17.0944H114.091C114.011 17.0944 113.971 17.1344 113.971 17.2144V24.0304C113.971 24.1104 113.939 24.1824 113.875 24.2464C113.827 24.2944 113.763 24.3184 113.683 24.3184H111.475C111.395 24.3184 111.323 24.2944 111.259 24.2464C111.211 24.1824 111.187 24.1104 111.187 24.0304V7.80636C111.187 7.72636 111.211 7.66236 111.259 7.61436C111.323 7.55036 111.395 7.51836 111.475 7.51836H113.683C113.763 7.51836 113.827 7.55036 113.875 7.61436C113.939 7.66236 113.971 7.72636 113.971 7.80636V14.5504C113.971 14.6304 114.011 14.6704 114.091 14.6704H118.651C118.731 14.6704 118.771 14.6304 118.771 14.5504V7.80636ZM129.682 24.5104C128.642 24.5104 127.722 24.2944 126.922 23.8624C126.122 23.4304 125.498 22.8224 125.05 22.0384C124.618 21.2384 124.402 20.3184 124.402 19.2784V7.80636C124.402 7.72636 124.426 7.66236 124.474 7.61436C124.538 7.55036 124.61 7.51836 124.69 7.51836H126.898C126.978 7.51836 127.042 7.55036 127.09 7.61436C127.154 7.66236 127.186 7.72636 127.186 7.80636V19.4224C127.186 20.2224 127.41 20.8704 127.858 21.3664C128.322 21.8624 128.93 22.1104 129.682 22.1104C130.434 22.1104 131.042 21.8624 131.506 21.3664C131.97 20.8704 132.202 20.2224 132.202 19.4224V7.80636C132.202 7.72636 132.226 7.66236 132.274 7.61436C132.338 7.55036 132.41 7.51836 132.49 7.51836H134.698C134.778 7.51836 134.842 7.55036 134.89 7.61436C134.954 7.66236 134.986 7.72636 134.986 7.80636V19.2784C134.986 20.3184 134.762 21.2384 134.314 22.0384C133.882 22.8224 133.266 23.4304 132.466 23.8624C131.666 24.2944 130.738 24.5104 129.682 24.5104ZM146.217 24.3184C146.041 24.3184 145.929 24.2384 145.881 24.0784L145.257 21.5104C145.241 21.4464 145.201 21.4144 145.137 21.4144H140.193C140.129 21.4144 140.089 21.4464 140.073 21.5104L139.473 24.0784C139.425 24.2384 139.313 24.3184 139.137 24.3184H136.857C136.649 24.3184 136.569 24.2144 136.617 24.0064L140.985 7.75836C141.033 7.59836 141.145 7.51836 141.321 7.51836H144.057C144.233 7.51836 144.345 7.59836 144.393 7.75836L148.761 24.0064L148.785 24.1024C148.785 24.2464 148.697 24.3184 148.521 24.3184H146.217ZM140.649 19.0864C140.633 19.1344 140.641 19.1744 140.673 19.2064C140.705 19.2224 140.737 19.2304 140.769 19.2304H144.561C144.593 19.2304 144.625 19.2224 144.657 19.2064C144.689 19.1744 144.697 19.1344 144.681 19.0864L142.713 11.2144C142.697 11.1664 142.673 11.1424 142.641 11.1424C142.609 11.1424 142.585 11.1664 142.569 11.2144L140.649 19.0864ZM159.123 7.80636C159.123 7.72636 159.147 7.66236 159.195 7.61436C159.259 7.55036 159.331 7.51836 159.411 7.51836H161.619C161.699 7.51836 161.763 7.55036 161.811 7.61436C161.875 7.66236 161.907 7.72636 161.907 7.80636V24.0304C161.907 24.1104 161.875 24.1824 161.811 24.2464C161.763 24.2944 161.699 24.3184 161.619 24.3184H159.291C159.147 24.3184 159.035 24.2464 158.955 24.1024L153.723 13.3504C153.691 13.3024 153.659 13.2864 153.627 13.3024C153.595 13.3024 153.579 13.3344 153.579 13.3984L153.603 24.0304C153.603 24.1104 153.571 24.1824 153.507 24.2464C153.459 24.2944 153.395 24.3184 153.315 24.3184H151.107C151.027 24.3184 150.955 24.2944 150.891 24.2464C150.843 24.1824 150.819 24.1104 150.819 24.0304V7.80636C150.819 7.72636 150.843 7.66236 150.891 7.61436C150.955 7.55036 151.027 7.51836 151.107 7.51836H153.411C153.571 7.51836 153.683 7.59036 153.747 7.73436L159.003 18.5344C159.035 18.5824 159.067 18.6064 159.099 18.6064C159.131 18.5904 159.147 18.5504 159.147 18.4864L159.123 7.80636ZM169.849 24.5104C168.809 24.5104 167.889 24.3024 167.089 23.8864C166.305 23.4704 165.689 22.8864 165.241 22.1344C164.809 21.3664 164.593 20.4864 164.593 19.4944V12.3424C164.593 11.3504 164.809 10.4784 165.241 9.72636C165.689 8.95836 166.305 8.36636 167.089 7.95036C167.889 7.53436 168.809 7.32636 169.849 7.32636C170.889 7.32636 171.809 7.53436 172.609 7.95036C173.409 8.35036 174.025 8.91836 174.457 9.65436C174.905 10.3904 175.129 11.2304 175.129 12.1744V12.7264C175.129 12.8064 175.097 12.8784 175.033 12.9424C174.985 12.9904 174.921 13.0144 174.841 13.0144H172.633C172.553 13.0144 172.481 12.9904 172.417 12.9424C172.369 12.8784 172.345 12.8064 172.345 12.7264V12.1744C172.345 11.4544 172.113 10.8704 171.649 10.4224C171.201 9.95836 170.601 9.72636 169.849 9.72636C169.113 9.72636 168.513 9.96636 168.049 10.4464C167.601 10.9104 167.377 11.5264 167.377 12.2944V19.5424C167.377 20.3104 167.609 20.9344 168.073 21.4144C168.553 21.8784 169.169 22.1104 169.921 22.1104C170.657 22.1104 171.241 21.9024 171.673 21.4864C172.121 21.0544 172.345 20.4704 172.345 19.7344V17.8384C172.345 17.7584 172.305 17.7184 172.225 17.7184H170.041C169.961 17.7184 169.889 17.6944 169.825 17.6464C169.777 17.5824 169.753 17.5104 169.753 17.4304V15.6784C169.753 15.5984 169.777 15.5344 169.825 15.4864C169.889 15.4224 169.961 15.3904 170.041 15.3904H174.841C174.921 15.3904 174.985 15.4224 175.033 15.4864C175.097 15.5344 175.129 15.5984 175.129 15.6784V19.4224C175.129 21.0064 174.649 22.2544 173.689 23.1664C172.729 24.0624 171.449 24.5104 169.849 24.5104ZM179.093 24.3664C178.597 24.3664 178.189 24.2064 177.869 23.8864C177.549 23.5664 177.389 23.1584 177.389 22.6624C177.389 22.1664 177.549 21.7584 177.869 21.4384C178.189 21.1184 178.597 20.9584 179.093 20.9584C179.589 20.9584 179.989 21.1184 180.293 21.4384C180.613 21.7584 180.773 22.1664 180.773 22.6624C180.773 23.1584 180.613 23.5664 180.293 23.8864C179.973 24.2064 179.573 24.3664 179.093 24.3664Z" fill="#002B5B"/>
<defs>
<linearGradient id="paint0_linear_777_40" x1="16.2938" y1="2.38903" x2="16.2938" y2="29.3182" gradientUnits="userSpaceOnUse">
<stop stop-color="#3E6161"/>
<stop offset="1" stop-color="#1F365C"/>
</linearGradient>
<linearGradient id="paint1_linear_777_40" x1="12.8895" y1="1.18164" x2="12.8895" y2="12.9229" gradientUnits="userSpaceOnUse">
<stop stop-color="#3E6161"/>
<stop offset="1" stop-color="#314E5E"/>
</linearGradient>
</defs>
</svg>
