<svg width="340" height="274" viewBox="0 0 340 274" fill="none" xmlns="http://www.w3.org/2000/svg">
<path d="M195.902 9.402L190.192 30.7107L174.593 15.1116L195.902 9.402Z" fill="white"/>
<path d="M150.871 54.4326L145.162 75.7413L129.563 60.1422L150.871 54.4326Z" fill="white"/>
<path d="M105.841 99.4632L100.131 120.772L84.5321 105.173L105.841 99.4632Z" fill="white"/>
<path d="M60.8102 144.494L55.1005 165.803L39.5015 150.203L60.8102 144.494Z" fill="white"/>
<path d="M240.933 54.4326L235.223 75.7413L219.624 60.1422L240.933 54.4326Z" fill="white"/>
<path d="M195.902 99.4632L190.192 120.772L174.593 105.173L195.902 99.4632Z" fill="white"/>
<path d="M150.871 144.494L145.162 165.803L129.563 150.203L150.871 144.494Z" fill="white"/>
<path d="M105.841 189.524L100.131 210.833L84.5321 195.234L105.841 189.524Z" fill="white"/>
<path d="M285.963 99.4632L280.254 120.772L264.655 105.173L285.963 99.4632Z" fill="white"/>
<path d="M240.933 144.494L235.223 165.803L219.624 150.203L240.933 144.494Z" fill="white"/>
<path d="M195.902 189.524L190.192 210.833L174.593 195.234L195.902 189.524Z" fill="white"/>
<path d="M150.871 234.555L145.162 255.864L129.563 240.265L150.871 234.555Z" fill="white"/>
<path d="M330.994 144.494L325.284 165.803L309.685 150.203L330.994 144.494Z" fill="white"/>
<path d="M285.963 189.524L280.254 210.833L264.655 195.234L285.963 189.524Z" fill="white"/>
<path d="M240.933 234.555L235.223 255.864L219.624 240.265L240.933 234.555Z" fill="white"/>
<path d="M195.902 279.586L190.192 300.894L174.593 285.295L195.902 279.586Z" fill="white"/>
<path d="M257.505 77.1844C276.519 103.477 283.439 131.762 282.171 164.382C281.536 180.718 277.479 198.094 263.623 208.511C249.666 219.004 238.783 225.022 220.486 222.43C197.834 219.22 176.764 211.372 160.198 195C138.255 173.313 105.589 137.497 140.167 109.661C158.771 94.6847 179.513 105.578 188.922 124.177C202.658 151.329 187.256 172.862 168.873 192.017C153.738 207.788 126 222.43 94.5474 217.795C85.7015 216.492 62.9665 210.467 51.5019 218.758C35.2745 230.494 36.2295 245.624 41.2172 264.453C43.1283 271.668 50.6368 279.185 54.9268 285.117C59.3648 291.254 67.6203 292.43 71.6389 297.987" stroke="#7391C8" stroke-width="20" stroke-linecap="round"/>
</svg>
